Simulation
nRows=20
nColumns=15
endheader
time  TH_x TH_y TH_z SC_y  SC_z  SC_x  AC_y  AC_z  AC_x  GH_y  GH_z  GH_yy  EL_x  PS_y
0.0  0.000000  0.000000  0.000000  -4.1255594887907305  31.074509433172658  -84.16355833328768  34.48583988313576  22.077888864161878  111.38783191661467  -51.09302480242855  32.83498902943284  79.15513433910513  23.587969984142134  0.000000
0.031  0.000000  0.000000  0.000000  -2.6528376264497098  32.11278796027796  -84.680094059588  52.76501099998924  33.60547638913448  96.61081109785808  -37.488948563398175  44.410851922300374  64.55048488546727  19.814857164408096  0.000000
0.062  0.000000  0.000000  0.000000  0.029809587036613752  32.690871510456624  -79.96944307374005  28.18400339748838  21.800660121589036  111.63300415771184  -69.96254604093572  47.97382992703649  90.92594478815555  19.356880453240027  0.000000
0.093  0.000000  0.000000  0.000000  -2.75641364947716  32.16641836606486  -75.23254839721044  4.075532250121057  17.214771285156687  122.48841882881298  -103.79256898978286  45.86605346520003  119.36167779033386  20.71638268053562  0.000000
0.124  0.000000  0.000000  0.000000  -9.816211184293223  28.03485868630289  -72.4811830798205  10.077800101395054  43.24631903350602  99.08887921479054  -105.19917668094378  22.935825282895628  121.76285341039251  20.83553735393708  0.000000
0.155  0.000000  0.000000  0.000000  -19.765642304530335  19.021744937116782  -62.3071490068956  28.24655528856578  42.51976971989796  67.22881424756152  -68.8433598364396  10.252952588479472  89.99350103901902  23.06662805969484  0.000000
0.186  0.000000  0.000000  0.000000  -24.35642769325652  11.805993977970893  -54.25365407257432  30.704505101905045  32.33560030201457  54.72098518327659  -47.67387986466371  10.041406753269797  72.22026533259479  22.53349043789131  0.000000
0.217  0.000000  0.000000  0.000000  -25.36334048349857  8.6543512482907  -49.62941853624818  36.29591977593065  29.609973922042887  41.51042897706912  -24.01960820137729  9.591164754322211  50.77804458196717  21.865318299340267  0.000000
0.248  0.000000  0.000000  0.000000  -26.474505474539825  6.83195599449318  -44.099217914748934  38.090849108170346  25.596474084673183  34.40736757386137  -22.44093901860998  8.94413937351887  51.81350002617729  22.089888923818098  0.000000
0.279  0.000000  0.000000  0.000000  -27.606333914831577  4.720772456826509  -38.52354681961388  38.72791822567473  22.07229929576772  30.932982886434964  -32.453191515147324  8.905041381374568  62.37628304501949  21.440676921368652  0.000000
0.31  0.000000  0.000000  0.000000  -28.547772756367504  2.9493119003830066  -33.236869415607224  41.44154765506686  20.970543753248446  26.850384795166075  -39.916273359954225  8.782129730709956  69.51768374141011  21.1606080830185  0.000000
0.34099999999999997  0.000000  0.000000  0.000000  -29.060943069582958  2.0452517767620604  -28.614265492535544  43.188884439328746  19.40270076894774  23.224970812832638  -39.17356911636813  8.182059292119572  68.47449416161594  21.256171644712015  0.000000
0.372  0.000000  0.000000  0.000000  -29.266068869809473  1.660177454978135  -24.622657464541017  44.014214274540876  17.796420546371525  20.042711324735684  -32.06166889954683  7.2635524347671  60.68293666945615  21.218289008522706  0.000000
0.403  0.000000  0.000000  0.000000  -29.316542199173536  1.3428077017100415  -21.1348829556658  44.59051500581088  16.303803489988812  17.244511724090742  -21.247421761129402  7.0029397595284815  49.11405450902015  21.187562090954703  0.000000
0.434  0.000000  0.000000  0.000000  -29.183222607884414  1.0887584113076612  -18.080148213955543  44.849145519131284  14.87820667761322  14.696029109665027  -9.063868425796295  7.345938270431245  36.01325950412117  21.189813070322586  0.000000
0.46499999999999997  0.000000  0.000000  0.000000  -29.11071016384432  0.8933034192182497  -15.321192110825223  45.08753521365675  13.56580506359199  12.423198209532405  0.7840197030567277  8.191399387266776  25.193735221369963  21.233912789453097  0.000000
0.496  0.000000  0.000000  0.000000  -29.01690252575522  0.7292274999788331  -12.836516205614156  45.250096574559855  12.331338695813807  10.375863394537056  7.915754209413147  9.374787482201642  17.013623492330577  21.34056603825953  0.000000
0.527  0.000000  0.000000  0.000000  -28.95339472552068  0.5519371119320461  -10.564407498240474  45.444348552377576  11.218385333558022  8.57499001093239  12.252312862591976  10.736383700294303  11.667065098166956  21.44052941990019  0.000000
0.558  0.000000  0.000000  0.000000  -28.88163959153549  0.37105390043580694  -8.486827730280547  45.664108108667  10.219804008540532  6.987648046602815  14.797411405135355  12.196129049345126  8.127757677886859  21.548635376376197  0.000000
0.589  0.000000  0.000000  0.000000  -28.82605793849546  0.24352759347914638  -6.602397551976438  45.87621448667663  9.342136171471687  5.619054082685715  16.534973871120666  13.689274941260443  5.501037004851765  21.61799440295168  0.000000
